<?xml version="1.0" encoding="iso-8859-1"?>
<!-- Generator: Adobe Illustrator 19.0.0, SVG Export Plug-In . SVG Version: 6.00 Build 0)  -->
<svg xmlns="http://www.w3.org/2000/svg" xmlns:xlink="http://www.w3.org/1999/xlink" version="1.1" id="Capa_1" x="0px" y="0px" viewBox="0 0 469.333 469.333" style="enable-background:new 0 0 469.333 469.333;" xml:space="preserve" width="512px" height="512px">
<g>
	<g>
		<g>
			<path d="M447.939,362.608V330.61c0-5.896-4.769-10.666-10.664-10.666c-5.894,0-10.664,4.771-10.664,10.666v0.318     c-19.222-29.8-40.134-56.494-51.589-70.534c-3.718-4.573-10.435-5.281-14.996-1.521c-4.572,3.719-5.248,10.437-1.52,14.999     c20.808,25.509,37.255,48.139,50.085,67.948c-5.635-1.807-11.572,1.186-13.418,6.747c-1.864,5.594,1.156,11.635,6.738,13.489     l23.57,7.859c23.487,42.729,26.06,67.448,18.97,74.533c-7.56,7.552-35.323,4.937-88.631-27.218     c-32.307-19.486-68.282-46.39-105.052-78.252c15.098-13.653,30.235-28.03,45.225-43.024     c53.459-53.472,99.191-108.744,130.619-157.457v0.12c0,5.896,4.769,10.666,10.664,10.666c5.894,0,10.664-4.771,10.664-10.666     v-31.999c0-1-0.415-1.896-0.682-2.834c24.497-46.125,28.636-77.73,12.273-94.089c-31.72-31.717-115.592,21.676-162.766,56.331     c-4.749,3.479-5.769,10.156-2.281,14.906c3.468,4.729,10.143,5.75,14.902,2.281c76.634-56.279,123.766-69.758,135.065-58.435     c6.855,6.857,5.113,30.534-19.214,74.615l-23.325,7.777c-5.582,1.854-8.602,7.896-6.738,13.489     c1.822,5.489,7.632,8.457,13.201,6.774c-30.588,47.329-75.208,101.164-127.459,153.438     c-15.346,15.347-30.827,29.986-46.247,43.875c-15.42-13.889-30.901-28.528-46.247-43.875     C136.168,228.598,91.548,174.763,60.96,127.434c5.569,1.682,11.378-1.285,13.201-6.774c1.864-5.594-1.156-11.635-6.738-13.489     l-23.325-7.777C19.77,55.312,18.029,31.635,24.883,24.778c11.33-11.333,58.473,2.167,135.169,58.518     c4.728,3.479,11.424,2.458,14.902-2.281c3.489-4.739,2.468-11.416-2.281-14.906C125.479,31.403,41.504-22.053,9.804,9.695     C-6.559,26.054-2.42,57.66,22.077,103.784c-0.267,0.939-0.682,1.835-0.682,2.834v31.999c0,5.896,4.769,10.666,10.664,10.666     c5.894,0,10.664-4.771,10.664-10.666v-0.12c31.427,48.713,77.16,103.985,130.619,157.457     c14.99,14.994,30.127,29.371,45.225,43.024c-36.769,31.862-72.745,58.766-105.052,78.252     c-53.36,32.176-81.112,34.728-88.631,27.218c-7.085-7.087-4.513-31.809,18.975-74.536l23.565-7.856     c5.582-1.854,8.602-7.896,6.738-13.489c-1.846-5.557-7.778-8.55-13.409-6.748c12.774-19.721,29.123-42.231,49.805-67.603     c3.718-4.562,3.03-11.281-1.531-15.01c-4.551-3.708-11.268-3-15.006,1.531c-11.394,13.98-32.172,40.523-51.298,70.177v-0.305     c0-5.896-4.769-10.666-10.664-10.666c-5.894,0-10.664,4.771-10.664,10.666v31.999c0,1.146,0.433,2.186,0.782,3.247     C2.18,403.678-8.942,440.79,9.804,459.532c6.54,6.541,15.506,9.802,26.867,9.802c21.119,0,50.506-11.302,87.86-33.832     c33.921-20.469,71.685-48.817,110.135-82.299c38.45,33.482,76.214,61.83,110.135,82.299     c37.354,22.541,66.741,33.842,87.87,33.832c11.351,0,20.317-3.26,26.857-9.802c18.745-18.74,7.635-55.838-12.373-93.673     C447.505,364.796,447.939,363.754,447.939,362.608z" fill="#029d9c"/>
			<path d="M128,138.667c0,5.896,4.771,10.667,10.667,10.667s10.667-4.771,10.667-10.667c0-5.885,4.781-10.667,10.667-10.667     c5.885,0,10.667,4.781,10.667,10.667s-4.781,10.667-10.667,10.667c-5.896,0-10.667,4.771-10.667,10.667     c0,5.896,4.771,10.667,10.667,10.667c5.885,0,10.667,4.781,10.667,10.667c0,5.885-4.781,10.667-10.667,10.667     c-5.885,0-10.667-4.781-10.667-10.667c0-5.896-4.771-10.667-10.667-10.667S128,175.437,128,181.333c0,17.646,14.354,32,32,32     c17.646,0,32-14.354,32-32c0-8.188-3.094-15.667-8.167-21.333c5.073-5.667,8.167-13.146,8.167-21.333c0-17.646-14.354-32-32-32     C142.354,106.667,128,121.021,128,138.667z" fill="#029d9c"/>
			<path d="M309.333,213.333c17.646,0,32-14.354,32-32v-42.667c0-17.646-14.354-32-32-32c-17.646,0-32,14.354-32,32v42.667     C277.333,198.979,291.687,213.333,309.333,213.333z M298.667,138.667c0-5.885,4.781-10.667,10.667-10.667     c5.885,0,10.667,4.781,10.667,10.667v42.667c0,5.885-4.781,10.667-10.667,10.667c-5.885,0-10.667-4.781-10.667-10.667V138.667z" fill="#029d9c"/>
			<path d="M234.667,213.333c17.646,0,32-14.354,32-32c0-17.646-14.354-32-32-32c-3.277,0-6.379,0.639-9.358,1.559     C227.719,141.185,234.784,128,256,128c5.896,0,10.667-4.771,10.667-10.667c0-5.896-4.771-10.667-10.667-10.667     c-42.188,0-53.333,34.885-53.333,53.333v21.333C202.667,198.979,217.021,213.333,234.667,213.333z M234.667,170.667     c5.885,0,10.667,4.781,10.667,10.667c0,5.885-4.781,10.667-10.667,10.667S224,187.219,224,181.333     C224,175.448,228.781,170.667,234.667,170.667z" fill="#029d9c"/>
			<path d="M384,106.667c0-11.76-9.573-21.333-21.333-21.333c-11.76,0-21.333,9.573-21.333,21.333S350.906,128,362.667,128     C374.427,128,384,118.427,384,106.667z" fill="#029d9c"/>
		</g>
	</g>
</g>
<g>
</g>
<g>
</g>
<g>
</g>
<g>
</g>
<g>
</g>
<g>
</g>
<g>
</g>
<g>
</g>
<g>
</g>
<g>
</g>
<g>
</g>
<g>
</g>
<g>
</g>
<g>
</g>
<g>
</g>
</svg>
