<?xml version="1.0" encoding="iso-8859-1"?>
<!-- Generator: Adobe Illustrator 19.0.0, SVG Export Plug-In . SVG Version: 6.00 Build 0)  -->
<svg xmlns="http://www.w3.org/2000/svg" xmlns:xlink="http://www.w3.org/1999/xlink" version="1.1" id="Capa_1" x="0px" y="0px" viewBox="0 0 511.844 511.844" style="enable-background:new 0 0 511.844 511.844;" xml:space="preserve" width="512px" height="512px">
<g>
	<g>
		<path d="M507.845,335.835H3.999c-2.21,0-3.999,1.788-3.999,3.999c0,2.21,1.789,3.998,3.999,3.998h503.846    c2.209,0,3.998-1.788,3.998-3.998C511.843,337.623,510.054,335.835,507.845,335.835z" fill="#FFFFFF"/>
	</g>
</g>
<g>
	<g>
		<path d="M255.921,351.815c-8.822,0-15.995,7.17-15.995,15.995c0,8.825,7.173,15.995,15.995,15.995    c8.826,0,15.996-7.17,15.996-15.995C271.917,358.985,264.747,351.815,255.921,351.815z M255.921,375.807    c-4.409,0-7.998-3.592-7.998-7.997c0-4.405,3.589-7.997,7.998-7.997c4.408,0,7.998,3.592,7.998,7.997    C263.919,372.215,260.329,375.807,255.921,375.807z" fill="#FFFFFF"/>
	</g>
</g>
<g>
	<g>
		<path d="M204.847,407.906c-2.125-0.453-4.288,0.883-4.772,3.039l-15.995,71.978c-0.477,2.155,0.883,4.288,3.038,4.771    c0.293,0.063,0.582,0.094,0.871,0.094c1.831,0,3.487-1.264,3.902-3.132l15.995-71.978    C208.362,410.523,207.003,408.39,204.847,407.906z" fill="#FFFFFF"/>
	</g>
</g>
<g>
	<g>
		<path d="M327.759,482.923l-15.996-71.978c-0.484-2.156-2.623-3.492-4.771-3.039c-2.156,0.484-3.514,2.617-3.037,4.772    l15.994,71.978c0.414,1.867,2.07,3.132,3.904,3.132c0.281,0,0.578-0.031,0.867-0.094    C326.876,487.211,328.236,485.078,327.759,482.923z" fill="#FFFFFF"/>
	</g>
</g>
<g>
	<g>
		<path d="M335.898,479.791H175.946c-2.211,0-3.999,1.788-3.999,3.998c0,2.211,1.788,3.999,3.999,3.999h159.952    c2.209,0,3.998-1.788,3.998-3.999C339.896,481.579,338.107,479.791,335.898,479.791z" fill="#FFFFFF"/>
	</g>
</g>
<g>
	<g>
		<path d="M483.851,47.923H27.991c-2.21,0-3.999,1.789-3.999,3.999v263.919c0,2.21,1.789,3.999,3.999,3.999h455.86    c2.211,0,4-1.789,4-3.999V51.922C487.851,49.712,486.062,47.923,483.851,47.923z M479.853,311.842H31.99V55.921h447.863V311.842z" fill="#FFFFFF"/>
	</g>
</g>
<g>
	<g>
		<path d="M483.851,63.918H27.991c-2.21,0-3.999,1.789-3.999,3.999s1.789,3.999,3.999,3.999h455.86c2.211,0,4-1.788,4-3.999    C487.851,65.707,486.062,63.918,483.851,63.918z" fill="#FFFFFF"/>
	</g>
</g>
<g>
	<g>
		<path d="M44.224,55.92h-0.078c-2.21,0-3.96,1.788-3.96,3.999s1.832,3.999,4.038,3.999c2.21,0,3.999-1.788,3.999-3.999    S46.434,55.92,44.224,55.92z" fill="#FFFFFF"/>
	</g>
</g>
<g>
	<g>
		<path d="M59.981,47.923c-2.21,0-3.999,1.789-3.999,3.999v15.995c0,2.21,1.789,3.999,3.999,3.999c2.211,0,3.999-1.788,3.999-3.999    V51.922C63.98,49.712,62.191,47.923,59.981,47.923z" fill="#FFFFFF"/>
	</g>
</g>
<g>
	<g>
		<path d="M91.971,47.923c-2.21,0-3.999,1.789-3.999,3.999v15.995c0,2.21,1.789,3.999,3.999,3.999c2.21,0,3.999-1.788,3.999-3.999    V51.922C95.97,49.712,94.181,47.923,91.971,47.923z" fill="#FFFFFF"/>
	</g>
</g>
<g>
	<g>
		<path d="M123.962,47.923c-2.21,0-3.999,1.789-3.999,3.999v15.995c0,2.21,1.789,3.999,3.999,3.999c2.209,0,3.999-1.788,3.999-3.999    V51.922C127.961,49.712,126.172,47.923,123.962,47.923z" fill="#FFFFFF"/>
	</g>
</g>
<g>
	<g>
		<path d="M155.952,47.923c-2.21,0-3.999,1.789-3.999,3.999v15.995c0,2.21,1.789,3.999,3.999,3.999s3.999-1.788,3.999-3.999V51.922    C159.951,49.712,158.162,47.923,155.952,47.923z" fill="#FFFFFF"/>
	</g>
</g>
<g>
	<g>
		<path d="M187.942,47.923c-2.21,0-3.999,1.789-3.999,3.999v15.995c0,2.21,1.789,3.999,3.999,3.999s3.999-1.788,3.999-3.999V51.922    C191.941,49.712,190.152,47.923,187.942,47.923z" fill="#FFFFFF"/>
	</g>
</g>
<g>
	<g>
		<path d="M467.857,47.923c-2.211,0-4,1.789-4,3.999v15.995c0,2.21,1.789,3.999,4,3.999c2.209,0,3.998-1.788,3.998-3.999V51.922    C471.855,49.712,470.066,47.923,467.857,47.923z" fill="#FFFFFF"/>
	</g>
</g>
<g>
	<g>
		<path d="M451.86,47.923c-2.209,0-3.998,1.789-3.998,3.999v15.995c0,2.21,1.789,3.999,3.998,3.999c2.211,0,4-1.788,4-3.999V51.922    C455.86,49.712,454.071,47.923,451.86,47.923z" fill="#FFFFFF"/>
	</g>
</g>
<g>
	<g>
		<path d="M427.868,47.923c-2.211,0-3.998,1.789-3.998,3.999v15.995c0,2.21,1.787,3.999,3.998,3.999s3.998-1.788,3.998-3.999V51.922    C431.866,49.712,430.079,47.923,427.868,47.923z" fill="#FFFFFF"/>
	</g>
</g>
<g>
	<g>
		<path d="M411.874,47.923c-2.211,0-4,1.789-4,3.999v15.995c0,2.21,1.789,3.999,4,3.999c2.209,0,3.998-1.788,3.998-3.999V51.922    C415.872,49.712,414.083,47.923,411.874,47.923z" fill="#FFFFFF"/>
	</g>
</g>
<g>
	<g>
		<path d="M395.878,47.923c-2.211,0-3.998,1.789-3.998,3.999v15.995c0,2.21,1.787,3.999,3.998,3.999s3.998-1.788,3.998-3.999V51.922    C399.876,49.712,398.089,47.923,395.878,47.923z" fill="#FFFFFF"/>
	</g>
</g>
<g>
	<g>
		<path d="M379.884,47.923c-2.211,0-4,1.789-4,3.999v15.995c0,2.21,1.789,3.999,4,3.999c2.209,0,3.998-1.788,3.998-3.999V51.922    C383.882,49.712,382.093,47.923,379.884,47.923z" fill="#FFFFFF"/>
	</g>
</g>
<g>
	<g>
		<path d="M363.888,47.923c-2.211,0-3.998,1.789-3.998,3.999v15.995c0,2.21,1.787,3.999,3.998,3.999s4-1.788,4-3.999V51.922    C367.888,49.712,366.099,47.923,363.888,47.923z" fill="#FFFFFF"/>
	</g>
</g>
<g>
	<g>
		<path d="M191.941,239.865h-39.988c-2.21,0-3.999,1.789-3.999,3.999v39.987c0,2.21,1.789,3.999,3.999,3.999h39.988    c2.21,0,3.999-1.789,3.999-3.999v-39.987C195.94,241.654,194.151,239.865,191.941,239.865z M187.942,279.852h-31.99v-31.99h31.99    V279.852z" fill="#FFFFFF"/>
	</g>
</g>
<g>
	<g>
		<path d="M307.047,281.18l-19.557-39.105c-1.359-2.71-5.795-2.71-7.154,0l-19.994,39.988c-0.621,1.243-0.554,2.71,0.176,3.89    c0.73,1.178,2.015,1.897,3.402,1.897h39.988c0.054,0,0.109,0,0.156,0c2.209,0,3.998-1.789,3.999-3.999    C308.063,282.821,307.68,281.883,307.047,281.18z M270.386,279.852l13.528-27.046l13.527,27.046H270.386z" fill="#FFFFFF"/>
	</g>
</g>
<g>
	<g>
		<path d="M362.982,241.329c-0.766-0.926-1.889-1.465-3.092-1.465h-39.988c-1.203,0-2.328,0.539-3.092,1.465    c-0.758,0.925-1.062,2.144-0.828,3.319l7.996,39.984c0.375,1.874,2.016,3.218,3.922,3.218h23.992c1.906,0,3.545-1.344,3.92-3.218    l7.998-39.984C364.044,243.473,363.74,242.254,362.982,241.329z M348.613,279.852h-17.434l-6.404-31.99h30.242L348.613,279.852z" fill="#FFFFFF"/>
	</g>
</g>
<g>
	<g>
		<path d="M244.893,246.894c-9.068-9.067-24.86-9.067-33.927,0c-4.534,4.53-7.029,10.556-7.029,16.964    c0,6.404,2.495,12.434,7.029,16.963c4.533,4.53,10.555,7.029,16.963,7.029c6.409,0,12.43-2.499,16.964-7.029    c4.533-4.529,7.029-10.559,7.029-16.963C251.922,257.45,249.427,251.424,244.893,246.894z M239.238,275.167    c-6.045,6.045-16.573,6.045-22.618,0c-3.022-3.023-4.686-7.038-4.686-11.309c0-4.273,1.663-8.288,4.686-11.31    c3.023-3.022,7.038-4.686,11.309-4.686c4.273,0,8.286,1.663,11.309,4.686c3.023,3.023,4.686,7.038,4.686,11.31    C243.924,268.13,242.26,272.145,239.238,275.167z" fill="#FFFFFF"/>
	</g>
</g>
<g>
	<g>
		<path d="M387.21,297.628l-15.994-23.993c-0.742-1.108-1.992-1.78-3.326-1.78h-14.395c-1.906,0-3.547,1.344-3.922,3.218    l-0.959,4.779H331.18l-0.961-4.779c-0.375-1.874-2.014-3.218-3.92-3.218h-22.391c-2.211,0-4,1.788-4,3.999v3.998h-31.99v-3.998    c0-2.211-1.789-3.999-3.998-3.999h-20.104c-1.257,0-2.695,0.93-3.448,1.937c-0.355,0.469-0.702,0.953-1.128,1.375    c-6.045,6.045-16.573,6.045-22.618,0c-0.426-0.422-0.774-0.906-1.391-1.734c-0.758-0.991-1.937-1.577-3.187-1.577h-20.103    c-2.211,0-3.999,1.788-3.999,3.999v3.998h-31.99v-3.998c0-2.211-1.789-3.999-3.999-3.999h-7.997c-1.336,0-2.585,0.672-3.327,1.78    l-15.995,23.993c-0.816,1.225-0.894,2.803-0.199,4.108c0.695,1.296,2.049,2.108,3.526,2.108h255.921    c1.477,0,2.828-0.813,3.531-2.109C388.101,300.432,388.022,298.854,387.21,297.628z M135.431,295.848l10.664-15.996h1.859v3.999    c0,2.21,1.789,3.999,3.999,3.999h39.988c2.21,0,3.999-1.789,3.999-3.999v-3.999h14.148c0.277,0.328,0.567,0.657,0.879,0.969    c9.068,9.068,24.86,9.068,33.927,0c0.305-0.305,0.586-0.617,0.879-0.969h14.147v3.999c0,2.21,1.789,3.999,4,3.999h39.988    c2.209,0,3.998-1.789,3.998-3.999v-3.999h15.121l0.951,4.78c0.375,1.874,2.016,3.218,3.922,3.218h23.992    c1.906,0,3.545-1.344,3.92-3.218l0.953-4.78h8.982l10.668,15.996H135.431z" fill="#FFFFFF"/>
	</g>
</g>
<g>
	<g>
		<path d="M171.947,127.899H99.969c-2.211,0-3.999,1.789-3.999,3.999v47.985c0,2.21,1.789,3.999,3.999,3.999h71.978    c2.21,0,3.999-1.789,3.999-3.999v-47.985C175.946,129.688,174.157,127.899,171.947,127.899z M167.947,175.884h-63.98v-39.987    h63.98V175.884z" fill="#FFFFFF"/>
	</g>
</g>
<g>
	<g>
		<path d="M139.957,111.905h-31.99c-1.515,0-2.897,0.855-3.577,2.21l-7.997,15.995c-0.621,1.238-0.555,2.71,0.175,3.889    c0.73,1.179,2.015,1.898,3.401,1.898h39.988c2.21,0,3.999-1.789,3.999-3.998v-15.995    C143.956,113.694,142.167,111.905,139.957,111.905z M135.958,127.899H106.44l3.998-7.997h25.52V127.899z" fill="#FFFFFF"/>
	</g>
</g>
<g>
	<g>
		<path d="M163.949,191.879h-55.983c-2.21,0-3.999,1.789-3.999,3.999s1.789,3.999,3.999,3.999h55.983    c2.211,0,3.999-1.789,3.999-3.999C167.948,193.668,166.159,191.879,163.949,191.879z" fill="#FFFFFF"/>
	</g>
</g>
<g>
	<g>
		<path d="M291.909,127.899h-71.977c-2.21,0-3.999,1.789-3.999,3.999v47.985c0,2.21,1.789,3.999,3.999,3.999h71.977    c2.211,0,4-1.789,4-3.999v-47.985C295.909,129.688,294.12,127.899,291.909,127.899z M287.911,175.884h-63.98v-39.987h63.98    V175.884z" fill="#FFFFFF"/>
	</g>
</g>
<g>
	<g>
		<path d="M259.92,111.905h-31.99c-1.515,0-2.898,0.855-3.577,2.21l-7.998,15.995c-0.621,1.238-0.554,2.71,0.176,3.889    c0.73,1.179,2.014,1.898,3.401,1.898h39.987c2.211,0,4-1.789,4.001-3.998v-15.995C263.92,113.694,262.131,111.905,259.92,111.905z     M255.921,127.899h-29.518l3.998-7.997h25.52V127.899z" fill="#FFFFFF"/>
	</g>
</g>
<g>
	<g>
		<path d="M283.913,191.879h-55.984c-2.21,0-3.999,1.789-3.999,3.999s1.789,3.999,3.999,3.999h55.984    c2.209,0,3.998-1.789,3.998-3.999C287.911,193.668,286.122,191.879,283.913,191.879z" fill="#FFFFFF"/>
	</g>
</g>
<g>
	<g>
		<path d="M411.874,127.899h-71.979c-2.211,0-3.998,1.789-3.998,3.999v47.985c0,2.21,1.787,3.999,3.998,3.999h71.979    c2.209,0,3.998-1.789,3.998-3.999v-47.985C415.872,129.688,414.083,127.899,411.874,127.899z M407.874,175.884h-63.98v-39.987    h63.98V175.884z" fill="#FFFFFF"/>
	</g>
</g>
<g>
	<g>
		<path d="M379.884,111.905h-31.99c-1.516,0-2.898,0.855-3.578,2.21l-7.998,15.995c-0.623,1.238-0.553,2.71,0.172,3.889    c0.734,1.179,2.015,1.898,3.406,1.898h39.988c2.209,0,3.998-1.789,3.998-3.998v-15.995    C383.882,113.694,382.093,111.905,379.884,111.905z M375.883,127.899h-29.521l3.998-7.997h25.523V127.899z" fill="#FFFFFF"/>
	</g>
</g>
<g>
	<g>
		<path d="M403.876,191.879h-55.982c-2.211,0-4,1.789-4,3.999s1.789,3.999,4,3.999h55.982c2.211,0,3.998-1.789,3.998-3.999    C407.874,193.668,406.087,191.879,403.876,191.879z" fill="#FFFFFF"/>
	</g>
</g>
<g>
	<g>
		<path d="M483.851,24.056H27.991C12.559,24.056,0,36.614,0,52.047V371.95c0,15.432,12.558,27.991,27.991,27.991h455.86    c15.433,0,27.992-12.559,27.992-27.992V52.047C511.843,36.615,499.285,24.056,483.851,24.056z M503.845,371.949    c0,11.027-8.965,19.993-19.994,19.993H27.991c-11.024,0-19.994-8.966-19.994-19.993V52.047c0-11.024,8.97-19.994,19.994-19.994    h455.86c11.029,0,19.994,8.97,19.994,19.994V371.949z" fill="#FFFFFF"/>
	</g>
</g>
<g>
	<g>
		<path d="M507.846,367.951c-2.211,0-4,1.788-4,3.999v15.87c0,11.215-8.777,19.993-19.994,19.993H27.992    c-11.211,0-19.994-8.778-19.994-19.993v-15.995c0-2.211-1.789-3.999-3.999-3.999S0,369.614,0,371.825v15.995    c0,15.698,12.297,27.991,27.991,27.991h455.86c15.699,0,27.992-12.293,27.993-27.991v-15.87    C511.844,369.739,510.055,367.951,507.846,367.951z" fill="#FFFFFF"/>
	</g>
</g>
<g>
</g>
<g>
</g>
<g>
</g>
<g>
</g>
<g>
</g>
<g>
</g>
<g>
</g>
<g>
</g>
<g>
</g>
<g>
</g>
<g>
</g>
<g>
</g>
<g>
</g>
<g>
</g>
<g>
</g>
</svg>
