<?xml version="1.0" encoding="iso-8859-1"?>
<!-- Generator: Adobe Illustrator 19.0.0, SVG Export Plug-In . SVG Version: 6.00 Build 0)  -->
<svg xmlns="http://www.w3.org/2000/svg" xmlns:xlink="http://www.w3.org/1999/xlink" version="1.1" id="Layer_1" x="0px" y="0px" viewBox="0 0 512 512" style="enable-background:new 0 0 512 512;" xml:space="preserve" width="512px" height="512px">
<g>
	<g>
		<path d="M238.933,358.4h-68.267c-4.713,0-8.533,3.821-8.533,8.533V460.8c0,4.713,3.821,8.533,8.533,8.533h68.267    c4.713,0,8.533-3.821,8.533-8.533v-93.867C247.467,362.221,243.646,358.4,238.933,358.4z M230.4,452.267h-51.2v-76.8h51.2V452.267    z" fill="#17a493"/>
	</g>
</g>
<g>
	<g>
		<path d="M136.533,358.4H68.267c-4.713,0-8.533,3.821-8.533,8.533V460.8c0,4.713,3.821,8.533,8.533,8.533h68.267    c4.713,0,8.533-3.821,8.533-8.533v-93.867C145.067,362.221,141.246,358.4,136.533,358.4z M128,452.267H76.8v-76.8H128V452.267z" fill="#17a493"/>
	</g>
</g>
<g>
	<g>
		<path d="M341.333,358.4h-68.267c-4.713,0-8.533,3.821-8.533,8.533V460.8c0,4.713,3.821,8.533,8.533,8.533h68.267    c4.713,0,8.533-3.821,8.533-8.533v-93.867C349.867,362.221,346.046,358.4,341.333,358.4z M332.8,452.267h-51.2v-76.8h51.2V452.267    z" fill="#17a493"/>
	</g>
</g>
<g>
	<g>
		<path d="M443.733,358.4h-68.267c-4.713,0-8.533,3.821-8.533,8.533V460.8c0,4.713,3.821,8.533,8.533,8.533h68.267    c4.713,0,8.533-3.821,8.533-8.533v-93.867C452.267,362.221,448.446,358.4,443.733,358.4z M435.2,452.267H384v-76.8h51.2V452.267z" fill="#17a493"/>
	</g>
</g>
<g>
	<g>
		<path d="M486.4,315.733V230.4c0-4.713-3.821-8.533-8.533-8.533h-59.96c-4.306-82.623-70.75-149.068-153.373-153.373V51.2h59.733    c4.713,0,8.533-3.821,8.533-8.533V8.533c0-4.713-3.821-8.533-8.533-8.533h-59.733H256h-8.533v8.533v34.133v25.827    c-82.623,4.306-149.068,70.75-153.373,153.373h-59.96c-4.713,0-8.533,3.821-8.533,8.533v85.333c-4.713,0-8.533,3.821-8.533,8.533    v179.2c0,4.713,3.821,8.533,8.533,8.533h460.8c4.713,0,8.533-3.821,8.533-8.533v-179.2    C494.933,319.554,491.113,315.733,486.4,315.733z M264.533,17.067h51.2v17.067h-51.2V17.067z M256,85.333    c77.123,0,140.36,60.503,144.795,136.533H111.205C115.64,145.836,178.877,85.333,256,85.333z M42.667,238.933h426.667v76.8H42.667    V238.933z M477.867,494.933H34.133V332.8h443.733V494.933z" fill="#17a493"/>
	</g>
</g>
<g>
	<g>
		<path d="M68.267,256c-4.713,0-8.533,3.821-8.533,8.533v25.6c0,4.713,3.821,8.533,8.533,8.533s8.533-3.821,8.533-8.533v-25.6    C76.8,259.821,72.979,256,68.267,256z" fill="#17a493"/>
	</g>
</g>
<g>
	<g>
		<path d="M102.4,256c-4.713,0-8.533,3.821-8.533,8.533v25.6c0,4.713,3.821,8.533,8.533,8.533c4.713,0,8.533-3.821,8.533-8.533    v-25.6C110.933,259.821,107.113,256,102.4,256z" fill="#17a493"/>
	</g>
</g>
<g>
	<g>
		<path d="M136.533,256c-4.713,0-8.533,3.821-8.533,8.533v25.6c0,4.713,3.821,8.533,8.533,8.533s8.533-3.821,8.533-8.533v-25.6    C145.067,259.821,141.246,256,136.533,256z" fill="#17a493"/>
	</g>
</g>
<g>
	<g>
		<path d="M170.667,256c-4.713,0-8.533,3.821-8.533,8.533v25.6c0,4.713,3.821,8.533,8.533,8.533c4.713,0,8.533-3.821,8.533-8.533    v-25.6C179.2,259.821,175.379,256,170.667,256z" fill="#17a493"/>
	</g>
</g>
<g>
	<g>
		<path d="M204.8,256c-4.713,0-8.533,3.821-8.533,8.533v25.6c0,4.713,3.821,8.533,8.533,8.533s8.533-3.821,8.533-8.533v-25.6    C213.333,259.821,209.513,256,204.8,256z" fill="#17a493"/>
	</g>
</g>
<g>
	<g>
		<path d="M238.933,256c-4.713,0-8.533,3.821-8.533,8.533v25.6c0,4.713,3.821,8.533,8.533,8.533s8.533-3.821,8.533-8.533v-25.6    C247.467,259.821,243.646,256,238.933,256z" fill="#17a493"/>
	</g>
</g>
<g>
	<g>
		<path d="M273.067,256c-4.713,0-8.533,3.821-8.533,8.533v25.6c0,4.713,3.821,8.533,8.533,8.533s8.533-3.821,8.533-8.533v-25.6    C281.6,259.821,277.779,256,273.067,256z" fill="#17a493"/>
	</g>
</g>
<g>
	<g>
		<path d="M307.2,256c-4.713,0-8.533,3.821-8.533,8.533v25.6c0,4.713,3.821,8.533,8.533,8.533s8.533-3.821,8.533-8.533v-25.6    C315.733,259.821,311.913,256,307.2,256z" fill="#17a493"/>
	</g>
</g>
<g>
	<g>
		<path d="M341.333,256c-4.713,0-8.533,3.821-8.533,8.533v25.6c0,4.713,3.821,8.533,8.533,8.533s8.533-3.821,8.533-8.533v-25.6    C349.867,259.821,346.046,256,341.333,256z" fill="#17a493"/>
	</g>
</g>
<g>
	<g>
		<path d="M375.467,256c-4.713,0-8.533,3.821-8.533,8.533v25.6c0,4.713,3.821,8.533,8.533,8.533s8.533-3.821,8.533-8.533v-25.6    C384,259.821,380.179,256,375.467,256z" fill="#17a493"/>
	</g>
</g>
<g>
	<g>
		<path d="M409.6,256c-4.713,0-8.533,3.821-8.533,8.533v25.6c0,4.713,3.821,8.533,8.533,8.533c4.713,0,8.533-3.821,8.533-8.533    v-25.6C418.133,259.821,414.313,256,409.6,256z" fill="#17a493"/>
	</g>
</g>
<g>
	<g>
		<path d="M443.733,256c-4.713,0-8.533,3.821-8.533,8.533v25.6c0,4.713,3.821,8.533,8.533,8.533s8.533-3.821,8.533-8.533v-25.6    C452.267,259.821,448.446,256,443.733,256z" fill="#17a493"/>
	</g>
</g>
<g>
</g>
<g>
</g>
<g>
</g>
<g>
</g>
<g>
</g>
<g>
</g>
<g>
</g>
<g>
</g>
<g>
</g>
<g>
</g>
<g>
</g>
<g>
</g>
<g>
</g>
<g>
</g>
<g>
</g>
</svg>
