<svg height='451' width='451'  fill="#fff" xmlns="http://www.w3.org/2000/svg" xmlns:xlink="http://www.w3.org/1999/xlink" version="1.1" x="0px" y="0px" viewBox="0 0 100 100" enable-background="new 0 0 100 100" xml:space="preserve"><path fill="none" d="M32.056,26.72c0-0.627-0.508-1.135-1.135-1.135c-0.627,0-1.135,0.508-1.135,1.135  c0,0.188,0.057,0.357,0.137,0.513l-0.26,14.421l1.257,1.347l1.257-1.347l-0.259-14.421C31.999,27.077,32.056,26.908,32.056,26.72z"></path><rect x="44.635" y="34.416" fill="none" width="1.531" height="1.531"></rect><rect x="44.635" y="43.23" fill="none" width="1.531" height="1.531"></rect><rect x="44.635" y="52.045" fill="none" width="1.531" height="1.531"></rect><polygon fill="none" points="27.037,26.206 27.038,26.205 27.037,26.205 "></polygon><path fill="none" d="M17.166,36.171c0.676,1.249,2.893,5.43,4.115,8.721c0-0.021-0.003-0.04-0.003-0.061  c0-0.517,0.052-1.021,0.131-1.516l-0.011-0.001l0.035-0.154c0.058-0.331,0.131-0.655,0.222-0.973l2.111-9.265  c-1.461,0.816-3.519,1.911-4.6,2.437C18.668,35.601,17.948,35.901,17.166,36.171z"></path><path fill="none" d="M61.259,26.487H51.116V25.45h-9.338v40.62h28.819V25.45h-9.338V26.487z M50.089,35.664h5.675v0.604h-5.675  V35.664z M50.089,44.479h5.675v0.604h-5.675V44.479z M46.808,53.898c0,0.177-0.144,0.321-0.321,0.321h-2.174  c-0.178,0-0.321-0.144-0.321-0.321v-2.174c0-0.178,0.144-0.321,0.321-0.321h2.174c0.177,0,0.321,0.144,0.321,0.321V53.898z   M46.808,45.083c0,0.178-0.144,0.321-0.321,0.321h-2.174c-0.178,0-0.321-0.144-0.321-0.321v-2.174c0-0.177,0.144-0.321,0.321-0.321  h2.174c0.177,0,0.321,0.144,0.321,0.321V45.083z M46.808,36.268c0,0.177-0.144,0.321-0.321,0.321h-2.174  c-0.178,0-0.321-0.144-0.321-0.321v-2.174c0-0.178,0.144-0.321,0.321-0.321h2.174c0.177,0,0.321,0.144,0.321,0.321V36.268z   M55.765,53.898h-5.675v-0.604h5.675V53.898z M66.21,52.328h-16.12v-0.604h16.12V52.328z M66.21,43.513h-16.12v-0.604h16.12V43.513z   M66.21,34.698h-16.12v-0.604h16.12V34.698z"></path><circle cx="30.921" cy="17.296" r="6.694"></circle><path d="M46.487,33.773h-2.174c-0.178,0-0.321,0.144-0.321,0.321v2.174c0,0.177,0.144,0.321,0.321,0.321h2.174  c0.177,0,0.321-0.144,0.321-0.321v-2.174C46.808,33.917,46.665,33.773,46.487,33.773z M46.166,35.947h-1.531v-1.531h1.531V35.947z"></path><path d="M46.487,42.588h-2.174c-0.178,0-0.321,0.144-0.321,0.321v2.174c0,0.178,0.144,0.321,0.321,0.321h2.174  c0.177,0,0.321-0.144,0.321-0.321v-2.174C46.808,42.732,46.665,42.588,46.487,42.588z M46.166,44.762h-1.531V43.23h1.531V44.762z"></path><path d="M46.487,51.403h-2.174c-0.178,0-0.321,0.144-0.321,0.321v2.174c0,0.177,0.144,0.321,0.321,0.321h2.174  c0.177,0,0.321-0.144,0.321-0.321v-2.174C46.808,51.547,46.665,51.403,46.487,51.403z M46.166,53.577h-1.531v-1.531h1.531V53.577z"></path><rect x="50.089" y="34.094" width="16.12" height="0.604"></rect><rect x="50.089" y="35.664" width="5.675" height="0.604"></rect><rect x="50.089" y="42.909" width="16.12" height="0.604"></rect><rect x="50.089" y="44.479" width="5.675" height="0.604"></rect><rect x="50.089" y="51.724" width="16.12" height="0.604"></rect><rect x="50.089" y="53.294" width="5.675" height="0.604"></rect><path d="M51.731,23.499c0.395,0,0.729-0.204,0.946-0.499c0.693,0.48,1.814,0.795,3.087,0.795c2.107,0,3.815-0.854,3.815-1.907  c0-1.053-1.708-1.907-3.815-1.907c-1.628,0-3.007,0.512-3.555,1.23c-0.147-0.065-0.308-0.103-0.479-0.103  c-0.661,0-1.196,0.535-1.196,1.196C50.535,22.963,51.07,23.499,51.731,23.499z"></path><path d="M73.174,22.302h-5.952h-5.963h-0.71c-0.316,1.464-2.256,2.526-4.784,2.526c-1.095,0-2.134-0.207-2.963-0.58  c-0.324,0.185-0.69,0.285-1.071,0.285c-1.229,0-2.23-1.001-2.23-2.231c0,0,0,0,0,0h-2.692h-7.607c-0.622,0-1.126,0.504-1.126,1.126  v44.662c0,0.622,0.504,1.126,1.126,1.126h33.972c0.622,0,1.126-0.504,1.126-1.126V23.429C74.3,22.807,73.796,22.302,73.174,22.302z   M70.597,66.07H41.778V25.45h9.338v1.038h10.143V25.45h9.338V66.07z"></path><path d="M36.575,68.091V26.507c-0.981-0.272-1.65-0.375-1.771-0.301c-0.011-0.008-0.021-0.016-0.031-0.024L34.062,24.7l-2.894,0.258  v0.012c-0.083-0.003-0.164-0.012-0.247-0.012c-0.092,0-0.181,0.01-0.272,0.014v-0.014L27.755,24.7l-0.721,1.504l0,0  c-0.586-0.316-11.97,2.848-14.32,9.326c-0.105,0.29-0.122,0.517-0.086,0.706c-0.2,0.614-0.158,1.303,0.185,1.909  c0,0,6.98,12.061,8.938,10.954c0.156-0.089,0.252-0.255,0.305-0.473c0.082,0.192,0.177,0.377,0.271,0.562  c0.048,2.397-0.016,3.421-0.016,3.421l0.001,0c-0.647,4.005-1.207,13.863,0.519,37.917c0,0,0.167,0.102,0.45,0.236v0.879  c0,1.727,1.186,3.127,2.65,3.127h0.014c1.463,0,2.65-1.4,2.65-3.127v-0.853c0.15-0.08,0.3-0.162,0.45-0.261  c0.335-8.742,0.027-18.352,0.396-25.491c0.02-0.2,0.037-0.39,0.052-0.562c0.06-0.685,0.123-1.624,0.182-2.658  c0.228-2.304,0.577-4.198,1.111-5.521c2.217,5.493,1.229,20.875,1.74,34.231c0.172,0.114,0.345,0.211,0.518,0.3v0.75  c0,1.727,1.186,3.127,2.65,3.127h0.014c1.463,0,2.65-1.4,2.65-3.127v-0.847c0.241-0.117,0.382-0.203,0.382-0.203  c0.582-8.115,0.904-14.607,1.05-19.811h-0.588C37.753,70.717,36.575,69.539,36.575,68.091z M21.654,42.187  c-0.091,0.318-0.164,0.643-0.222,0.973l-0.035,0.154l0.011,0.001c-0.078,0.495-0.131,0.999-0.131,1.516  c0,0.021,0.003,0.04,0.003,0.061c-1.222-3.292-3.439-7.472-4.115-8.721c0.782-0.27,1.502-0.57,2-0.812  c1.081-0.526,3.138-1.621,4.6-2.437L21.654,42.187z M27.037,26.206L27.037,26.206L27.037,26.206L27.037,26.206z M30.921,43.001  l-1.257-1.347l0.26-14.421c-0.081-0.156-0.137-0.326-0.137-0.513c0-0.627,0.508-1.135,1.135-1.135c0.627,0,1.135,0.508,1.135,1.135  c0,0.188-0.057,0.357-0.137,0.513l0.259,14.421L30.921,43.001z"></path></svg>